<svg xmlns="http://www.w3.org/2000/svg" version="1.1" xmlns:xlink="http://www.w3.org/1999/xlink" xmlns:svgjs="http://svgjs.dev/svgjs" width="1500" height="1500" viewBox="0 0 1500 1500"><rect width="1500" height="1500" fill="#444444"></rect><g transform="matrix(0.6666666666666666,0,0,0.6666666666666666,249.39393939393938,623.3763632273449)"><svg viewBox="0 0 396 100" data-background-color="#444444" preserveAspectRatio="xMidYMid meet" height="378" width="1500" xmlns="http://www.w3.org/2000/svg" xmlns:xlink="http://www.w3.org/1999/xlink"><g id="tight-bounds" transform="matrix(1,0,0,1,0.2400000000000091,0.24747490978379005)"><svg viewBox="0 0 395.52 99.50505018043242" height="99.50505018043242" width="395.52"><g><svg viewBox="0 0 395.52 99.50505018043242" height="99.50505018043242" width="395.52"><g><svg viewBox="0 0 395.52 99.50505018043242" height="99.50505018043242" width="395.52"><g id="textblocktransform"><svg viewBox="0 0 395.52 99.50505018043242" height="99.50505018043242" width="395.52" id="textblock"><g><rect width="106.79039999999999" height="6.103251302598986" y="88.52833415440845" fill="#ffffff" data-fill-palette-color="tertiary"></rect><rect width="106.79039999999999" height="6.103251302598986" y="88.52833415440845" x="288.7296" fill="#ffffff" data-fill-palette-color="tertiary"></rect></g><g><svg viewBox="0 0 395.52 67.6777717802008" height="67.6777717802008" width="395.52"><g transform="matrix(1,0,0,1,0,0)"><svg width="395.52" viewBox="4.32 -38.23 226.13 38.69" height="67.6777717802008" data-palette-color="#ffffff"><path d="M4.32 0L4.32-34.55 14.48-34.55Q21.58-34.55 24.9-33.54L24.9-33.54Q28.69-32.37 30.75-30.54 32.81-28.71 33.98-26.76L33.98-26.76Q36.38-22.78 36.38-17.72L36.38-17.72Q36.38-9.77 30.66-4.83L30.66-4.83Q26.61-1.29 21.12-0.46L21.12-0.46Q18.07 0 12.57 0L12.57 0 4.32 0ZM16.77-32.69L16.77-2.03Q17.16-2 17.48-2L17.48-2 18.04-2Q24.66-2 29.35-6.13L29.35-6.13Q34.3-10.47 34.3-17.68L34.3-17.68Q34.3-22.22 32.13-25.85L32.13-25.85Q28.98-31.15 22.17-32.28L22.17-32.28Q19.95-32.64 16.77-32.69L16.77-32.69ZM47.87-30.35Q45.36-30.35 43.94-31.47 42.53-32.59 42.53-34.42L42.53-34.42Q42.53-35.96 44.09-37.06L44.09-37.06Q45.75-38.23 47.6-38.23 49.46-38.23 50.47-37.87 51.49-37.5 52.19-36.91L52.19-36.91Q53.61-35.72 53.61-34.13L53.61-34.13Q53.61-32.54 52-31.45L52-31.45Q50.39-30.35 47.87-30.35ZM42.75 0L42.75-26.07 53.24-26.07 53.24 0 42.75 0ZM79.29 0L79.29-23.41Q78.68-23.8 77.97-23.8 77.27-23.8 76.51-23.47 75.75-23.14 74.92-22.56L74.92-22.56Q73.19-21.31 71.72-19.24L71.72-19.24 71.72 0 61.23 0 61.23-26.07 71.72-26.07 71.72-21.9Q75.9-26.51 81.17-26.51L81.17-26.51Q89.79-26.51 89.79-18.16L89.79-18.16 89.79 0 79.29 0ZM120.43-5.93L120.43-5.93Q121.38-5.93 121.38-5.05L121.38-5.05Q121.38-4.39 120.52-3.49L120.52-3.49Q116.67 0.46 109.95 0.46L109.95 0.46Q103.92 0.46 99.8-3.17L99.8-3.17Q95.52-6.96 95.52-12.74L95.52-12.74Q95.52-18.65 99.38-22.46L99.38-22.46Q103.46-26.51 110.22-26.51L110.22-26.51Q115.64-26.51 119.33-23.22L119.33-23.22Q123.31-19.68 123.31-13.92L123.31-13.92Q123.31-13.09 123.26-12.16L123.26-12.16 107.15-12.16 107.15-1.68Q108.81-1.34 110.88-1.34L110.88-1.34Q115.28-1.34 118.38-4.25L118.38-4.25Q119.01-4.88 119.28-5.25L119.28-5.25Q119.84-5.93 120.43-5.93ZM113.91-13.94L113.91-24.27Q112.32-24.73 110.32-24.73 108.32-24.73 107.15-24.46L107.15-24.46 107.15-13.94 113.91-13.94ZM145.33-24.19L145.33-24.19 142.71-24.29 140-24.29 140 0 129.51 0 129.53-24.29 129.14-24.29 126.82-24.19Q125.38-24.19 125.38-25.18 125.38-26.17 126.7-26.17L126.7-26.17 129.6-26.07Q130.12-30.49 133.53-32.84L133.53-32.84Q136.66-34.99 141.71-34.99L141.71-34.99Q146.45-34.99 148.23-33.11L148.23-33.11Q148.72-32.59 148.72-32.13L148.72-32.13Q148.72-31.05 147.62-31.05L147.62-31.05Q147.08-31.05 146.57-31.42L146.57-31.42 145.69-32.03Q144.28-33.08 142.64-33.18L142.64-33.18Q142.2-33.2 141.73-33.2 141.25-33.2 140.83-33.15 140.42-33.11 140-33.06L140-33.06 140-26.07 142.13-26.07 145.4-26.17Q146.72-26.17 146.72-25.18 146.72-24.19 145.33-24.19ZM155.02-30.35Q152.5-30.35 151.09-31.47 149.67-32.59 149.67-34.42L149.67-34.42Q149.67-35.96 151.23-37.06L151.23-37.06Q152.89-38.23 154.75-38.23 156.6-38.23 157.62-37.87 158.63-37.5 159.34-36.91L159.34-36.91Q160.75-35.72 160.75-34.13L160.75-34.13Q160.75-32.54 159.14-31.45L159.14-31.45Q157.53-30.35 155.02-30.35ZM149.89 0L149.89-26.07 160.39-26.07 160.39 0 149.89 0ZM186.44 0L186.44-23.41Q185.82-23.8 185.12-23.8 184.41-23.8 183.65-23.47 182.9-23.14 182.07-22.56L182.07-22.56Q180.33-21.31 178.87-19.24L178.87-19.24 178.87 0 168.37 0 168.37-26.07 178.87-26.07 178.87-21.9Q183.04-26.51 188.32-26.51L188.32-26.51Q196.93-26.51 196.93-18.16L196.93-18.16 196.93 0 186.44 0ZM227.57-5.93L227.57-5.93Q228.52-5.93 228.52-5.05L228.52-5.05Q228.52-4.39 227.67-3.49L227.67-3.49Q223.81 0.46 217.1 0.46L217.1 0.46Q211.07 0.46 206.94-3.17L206.94-3.17Q202.67-6.96 202.67-12.74L202.67-12.74Q202.67-18.65 206.53-22.46L206.53-22.46Q210.6-26.51 217.37-26.51L217.37-26.51Q222.79-26.51 226.47-23.22L226.47-23.22Q230.45-19.68 230.45-13.92L230.45-13.92Q230.45-13.09 230.4-12.16L230.4-12.16 214.29-12.16 214.29-1.68Q215.95-1.34 218.02-1.34L218.02-1.34Q222.42-1.34 225.52-4.25L225.52-4.25Q226.15-4.88 226.42-5.25L226.42-5.25Q226.98-5.93 227.57-5.93ZM221.05-13.94L221.05-24.27Q219.46-24.73 217.46-24.73 215.46-24.73 214.29-24.46L214.29-24.46 214.29-13.94 221.05-13.94Z" opacity="1" transform="matrix(1,0,0,1,0,0)" fill="#ffffff" class="wordmark-text-0" data-fill-palette-color="primary" id="text-0"></path></svg></g></svg></g><g transform="matrix(1,0,0,1,106.79039999999999,83.65486943098348)"><svg viewBox="0 0 181.9392 15.850180749448935" height="15.850180749448935" width="181.9392"><g transform="matrix(1,0,0,1,8,0)"><svg width="165.9392" viewBox="1.8 -35.5 476.31 45.5" height="15.850180749448935" data-palette-color="#00d1cd"><path d="M14.35 0.5L14.35 0.5Q10.55 0.55 7.75-0.7 4.95-1.95 2.4-4.45L2.4-4.45Q2.15-4.65 1.98-4.95 1.8-5.25 1.8-5.65L1.8-5.65Q1.8-6.25 2.27-6.75 2.75-7.25 3.35-7.25L3.35-7.25Q3.95-7.25 4.45-6.75L4.45-6.75Q6.4-4.65 8.88-3.55 11.35-2.45 14.2-2.45L14.2-2.45Q16.6-2.45 18.48-3.2 20.35-3.95 21.45-5.35 22.55-6.75 22.55-8.6L22.55-8.6Q22.55-10.9 21.3-12.33 20.05-13.75 18-14.68 15.95-15.6 13.45-16.35L13.45-16.35Q11.4-16.95 9.55-17.73 7.7-18.5 6.25-19.63 4.8-20.75 4-22.4 3.2-24.05 3.2-26.4L3.2-26.4Q3.2-29.05 4.6-31.1 6-33.15 8.58-34.33 11.15-35.5 14.55-35.5L14.55-35.5Q17.5-35.5 20.23-34.5 22.95-33.5 24.55-31.55L24.55-31.55Q25.3-30.75 25.3-30.1L25.3-30.1Q25.3-29.6 24.8-29.1 24.3-28.6 23.7-28.6L23.7-28.6Q23.2-28.6 22.85-28.95L22.85-28.95Q22-30 20.7-30.83 19.4-31.65 17.82-32.1 16.25-32.55 14.55-32.55L14.55-32.55Q12.2-32.55 10.33-31.83 8.45-31.1 7.38-29.75 6.3-28.4 6.3-26.5L6.3-26.5Q6.3-24.4 7.5-23.05 8.7-21.7 10.65-20.83 12.6-19.95 14.8-19.2L14.8-19.2Q16.95-18.6 18.93-17.82 20.9-17.05 22.43-15.9 23.95-14.75 24.83-13 25.7-11.25 25.7-8.6L25.7-8.6Q25.7-6.05 24.25-4 22.8-1.95 20.28-0.75 17.75 0.45 14.35 0.5ZM52.8-25.55L52.8-25.55Q53.45-25.55 53.87-25.1 54.3-24.65 54.3-24L54.3-24 54.3-1.5Q54.3-0.9 53.85-0.45 53.4 0 52.8 0L52.8 0Q52.1 0 51.7-0.45 51.3-0.9 51.3-1.5L51.3-1.5 51.3-7.45 52.15-7.85Q52.15-6.45 51.37-5 50.6-3.55 49.25-2.3 47.9-1.05 46.07-0.28 44.25 0.5 42.1 0.5L42.1 0.5Q38.75 0.5 36.07-1.25 33.4-3 31.87-6.05 30.35-9.1 30.35-12.9L30.35-12.9Q30.35-16.8 31.9-19.78 33.45-22.75 36.1-24.45 38.75-26.15 42.05-26.15L42.05-26.15Q44.2-26.15 46.07-25.4 47.95-24.65 49.35-23.35 50.75-22.05 51.55-20.38 52.35-18.7 52.35-16.9L52.35-16.9 51.3-17.65 51.3-24Q51.3-24.65 51.7-25.1 52.1-25.55 52.8-25.55ZM42.4-2.3L42.4-2.3Q45.05-2.3 47.1-3.68 49.15-5.05 50.32-7.48 51.5-9.9 51.5-12.9L51.5-12.9Q51.5-15.85 50.32-18.2 49.15-20.55 47.1-21.95 45.05-23.35 42.4-23.35L42.4-23.35Q39.8-23.35 37.72-22 35.65-20.65 34.47-18.3 33.3-15.95 33.3-12.9L33.3-12.9Q33.3-9.9 34.45-7.48 35.6-5.05 37.67-3.68 39.75-2.3 42.4-2.3ZM60.95-26.1L60.95-26.1Q61.35-26.1 61.75-25.85 62.15-25.6 62.35-25.1L62.35-25.1 71.09-4.3 70.45-3.9 79.4-25.1Q79.8-26.1 80.84-26.05L80.84-26.05Q81.34-26.05 81.8-25.73 82.25-25.4 82.25-24.8L82.25-24.8Q82.25-24.5 82.17-24.33 82.09-24.15 82.05-23.95L82.05-23.95 72.25-0.95Q71.84-0.05 70.9 0L70.9 0Q70.45 0.05 70.02-0.23 69.59-0.5 69.4-0.95L69.4-0.95 59.55-23.95Q59.5-24.05 59.45-24.25 59.4-24.45 59.4-24.65L59.4-24.65Q59.4-25.2 59.8-25.65 60.2-26.1 60.95-26.1ZM111.34-12.8L111.34-12.8Q111.34-9 109.67-5.98 107.99-2.95 105.14-1.23 102.29 0.5 98.69 0.5L98.69 0.5Q95.14 0.5 92.27-1.23 89.39-2.95 87.72-5.98 86.04-9 86.04-12.8L86.04-12.8Q86.04-16.65 87.72-19.65 89.39-22.65 92.27-24.4 95.14-26.15 98.69-26.15L98.69-26.15Q102.29-26.15 105.14-24.4 107.99-22.65 109.67-19.65 111.34-16.65 111.34-12.8ZM108.34-12.8L108.34-12.8Q108.34-15.85 107.09-18.23 105.84-20.6 103.67-21.98 101.49-23.35 98.69-23.35L98.69-23.35Q95.94-23.35 93.77-21.98 91.59-20.6 90.32-18.23 89.04-15.85 89.04-12.8L89.04-12.8Q89.04-9.75 90.32-7.4 91.59-5.05 93.77-3.68 95.94-2.3 98.69-2.3L98.69-2.3Q101.49-2.3 103.67-3.68 105.84-5.05 107.09-7.4 108.34-9.75 108.34-12.8ZM118.99 0L118.99 0Q118.29 0 117.89-0.45 117.49-0.9 117.49-1.5L117.49-1.5 117.49-23.9Q117.49-24.5 117.92-24.95 118.34-25.4 118.99-25.4L118.99-25.4Q119.64-25.4 120.07-24.95 120.49-24.5 120.49-23.9L120.49-23.9 120.49-16.4 119.74-16.25Q119.89-18 120.62-19.73 121.34-21.45 122.59-22.9 123.84-24.35 125.57-25.25 127.29-26.15 129.44-26.15L129.44-26.15Q130.34-26.15 131.19-25.78 132.04-25.4 132.04-24.55L132.04-24.55Q132.04-23.8 131.64-23.4 131.24-23 130.69-23L130.69-23Q130.24-23 129.72-23.25 129.19-23.5 128.34-23.5L128.34-23.5Q126.94-23.5 125.54-22.68 124.14-21.85 122.99-20.45 121.84-19.05 121.17-17.32 120.49-15.6 120.49-13.85L120.49-13.85 120.49-1.5Q120.49-0.9 120.04-0.45 119.59 0 118.99 0ZM152.64-35L152.64-35 170.99-35Q171.59-35 172.04-34.58 172.49-34.15 172.49-33.5L172.49-33.5Q172.49-32.85 172.04-32.45 171.59-32.05 170.99-32.05L170.99-32.05 153.79-32.05 154.29-32.9 154.29-18.85 153.74-19.5 168.74-19.5Q169.34-19.5 169.79-19.05 170.24-18.6 170.24-18L170.24-18Q170.24-17.35 169.79-16.95 169.34-16.55 168.74-16.55L168.74-16.55 153.84-16.55 154.29-17.05 154.29-2.65 154.04-2.95 170.99-2.95Q171.59-2.95 172.04-2.5 172.49-2.05 172.49-1.45L172.49-1.45Q172.49-0.8 172.04-0.4 171.59 0 170.99 0L170.99 0 152.64 0Q152.04 0 151.59-0.45 151.14-0.9 151.14-1.5L151.14-1.5 151.14-33.5Q151.14-34.1 151.59-34.55 152.04-35 152.64-35ZM177.43-26.1L177.43-26.1Q177.83-26.1 178.23-25.85 178.63-25.6 178.83-25.1L178.83-25.1 187.58-4.3 186.93-3.9 195.88-25.1Q196.28-26.1 197.33-26.05L197.33-26.05Q197.83-26.05 198.28-25.73 198.73-25.4 198.73-24.8L198.73-24.8Q198.73-24.5 198.66-24.33 198.58-24.15 198.53-23.95L198.53-23.95 188.73-0.95Q188.33-0.05 187.38 0L187.38 0Q186.93 0.05 186.51-0.23 186.08-0.5 185.88-0.95L185.88-0.95 176.03-23.95Q175.98-24.05 175.93-24.25 175.88-24.45 175.88-24.65L175.88-24.65Q175.88-25.2 176.28-25.65 176.68-26.1 177.43-26.1ZM215.58 0.5L215.58 0.5Q211.73 0.5 208.78-1.15 205.83-2.8 204.18-5.75 202.53-8.7 202.53-12.65L202.53-12.65Q202.53-16.9 204.21-19.9 205.88-22.9 208.56-24.53 211.23-26.15 214.23-26.15L214.23-26.15Q216.43-26.15 218.51-25.38 220.58-24.6 222.18-23.08 223.78-21.55 224.78-19.35 225.78-17.15 225.83-14.25L225.83-14.25Q225.83-13.65 225.38-13.23 224.93-12.8 224.33-12.8L224.33-12.8 204.28-12.8 203.68-15.5 223.38-15.5 222.73-14.9 222.73-15.9Q222.48-18.25 221.18-19.9 219.88-21.55 218.06-22.4 216.23-23.25 214.23-23.25L214.23-23.25Q212.73-23.25 211.16-22.65 209.58-22.05 208.31-20.78 207.03-19.5 206.23-17.53 205.43-15.55 205.43-12.85L205.43-12.85Q205.43-9.9 206.63-7.5 207.83-5.1 210.08-3.7 212.33-2.3 215.53-2.3L215.53-2.3Q217.23-2.3 218.63-2.8 220.03-3.3 221.11-4.13 222.18-4.95 222.88-5.85L222.88-5.85Q223.43-6.3 223.93-6.3L223.93-6.3Q224.48-6.3 224.86-5.9 225.23-5.5 225.23-5L225.23-5Q225.23-4.4 224.73-3.95L224.73-3.95Q223.23-2.15 220.83-0.83 218.43 0.5 215.58 0.5ZM233.53 0L233.53 0Q232.83 0 232.43-0.45 232.03-0.9 232.03-1.5L232.03-1.5 232.03-23.9Q232.03-24.5 232.45-24.95 232.88-25.4 233.53-25.4L233.53-25.4Q234.18-25.4 234.6-24.95 235.03-24.5 235.03-23.9L235.03-23.9 235.03-16.4 234.28-16.25Q234.43-18 235.15-19.73 235.88-21.45 237.13-22.9 238.38-24.35 240.1-25.25 241.83-26.15 243.98-26.15L243.98-26.15Q244.88-26.15 245.73-25.78 246.58-25.4 246.58-24.55L246.58-24.55Q246.58-23.8 246.18-23.4 245.78-23 245.23-23L245.23-23Q244.78-23 244.25-23.25 243.73-23.5 242.88-23.5L242.88-23.5Q241.48-23.5 240.08-22.68 238.68-21.85 237.53-20.45 236.38-19.05 235.7-17.32 235.03-15.6 235.03-13.85L235.03-13.85 235.03-1.5Q235.03-0.9 234.58-0.45 234.13 0 233.53 0ZM270.33-26L270.33-26Q270.98-26 271.4-25.55 271.83-25.1 271.83-24.5L271.83-24.5 271.83-2.45Q271.83 1.6 270.23 4.38 268.63 7.15 265.93 8.58 263.23 10 259.78 10L259.78 10Q257.63 10 255.8 9.53 253.98 9.05 252.83 8.3L252.83 8.3Q252.23 7.95 251.93 7.45 251.63 6.95 251.88 6.4L251.88 6.4Q252.13 5.7 252.65 5.48 253.18 5.25 253.73 5.5L253.73 5.5Q254.58 5.95 256.18 6.6 257.78 7.25 259.83 7.25L259.83 7.25Q262.58 7.25 264.6 6.1 266.63 4.95 267.73 2.78 268.83 0.6 268.83-2.4L268.83-2.4 268.83-6 269.18-4.8Q268.43-3.25 267.05-2.05 265.68-0.85 263.9-0.18 262.13 0.5 260.13 0.5L260.13 0.5Q257.13 0.5 255.15-0.73 253.18-1.95 252.23-4.1 251.28-6.25 251.28-9.15L251.28-9.15 251.28-24.5Q251.28-25.1 251.68-25.55 252.08-26 252.78-26L252.78-26Q253.43-26 253.85-25.55 254.28-25.1 254.28-24.5L254.28-24.5 254.28-9.6Q254.28-6.1 255.8-4.2 257.33-2.3 260.78-2.3L260.78-2.3Q262.93-2.3 264.73-3.33 266.53-4.35 267.68-6.03 268.83-7.7 268.83-9.6L268.83-9.6 268.83-24.5Q268.83-25.1 269.25-25.55 269.68-26 270.33-26ZM295.57-35L295.57-35Q295.92-35 296.3-34.85 296.67-34.7 296.92-34.35L296.92-34.35 310.72-13.65 309.37-13.7 323.22-34.35Q323.77-35.1 324.57-35L324.57-35Q325.17-35 325.6-34.58 326.02-34.15 326.02-33.5L326.02-33.5 326.02-1.5Q326.02-0.9 325.57-0.45 325.12 0 324.47 0L324.47 0Q323.77 0 323.32-0.45 322.87-0.9 322.87-1.5L322.87-1.5 322.87-30.45 323.77-30.35 311.12-11.2Q310.97-10.9 310.67-10.73 310.37-10.55 309.97-10.6L309.97-10.6Q309.62-10.55 309.3-10.73 308.97-10.9 308.77-11.2L308.77-11.2 296.07-30.55 297.02-31.2 297.02-1.5Q297.02-0.9 296.6-0.45 296.17 0 295.52 0L295.52 0Q294.87 0 294.47-0.45 294.07-0.9 294.07-1.5L294.07-1.5 294.07-33.5Q294.07-34.1 294.5-34.55 294.92-35 295.57-35ZM358.27-12.8L358.27-12.8Q358.27-9 356.59-5.98 354.92-2.95 352.07-1.23 349.22 0.5 345.62 0.5L345.62 0.5Q342.07 0.5 339.19-1.23 336.32-2.95 334.64-5.98 332.97-9 332.97-12.8L332.97-12.8Q332.97-16.65 334.64-19.65 336.32-22.65 339.19-24.4 342.07-26.15 345.62-26.15L345.62-26.15Q349.22-26.15 352.07-24.4 354.92-22.65 356.59-19.65 358.27-16.65 358.27-12.8ZM355.27-12.8L355.27-12.8Q355.27-15.85 354.02-18.23 352.77-20.6 350.59-21.98 348.42-23.35 345.62-23.35L345.62-23.35Q342.87-23.35 340.69-21.98 338.52-20.6 337.24-18.23 335.97-15.85 335.97-12.8L335.97-12.8Q335.97-9.75 337.24-7.4 338.52-5.05 340.69-3.68 342.87-2.3 345.62-2.3L345.62-2.3Q348.42-2.3 350.59-3.68 352.77-5.05 354.02-7.4 355.27-9.75 355.27-12.8ZM375.92-25.75L375.92-25.75Q379.02-25.75 381.22-24.13 383.42-22.5 384.22-19.3L384.22-19.3 383.52-19.1 383.82-20Q384.47-21.5 385.99-22.83 387.52-24.15 389.47-24.95 391.42-25.75 393.42-25.75L393.42-25.75Q396.57-25.75 398.49-24.4 400.42-23.05 401.29-20.78 402.17-18.5 402.17-15.65L402.17-15.65 402.17-1.5Q402.17-0.9 401.74-0.45 401.32 0 400.67 0L400.67 0Q400.02 0 399.59-0.45 399.17-0.9 399.17-1.5L399.17-1.5 399.17-15.5Q399.17-17.55 398.52-19.25 397.87-20.95 396.47-21.95 395.07-22.95 392.72-22.95L392.72-22.95Q390.67-22.95 388.79-21.95 386.92-20.95 385.74-19.25 384.57-17.55 384.57-15.5L384.57-15.5 384.57-1.5Q384.57-0.9 384.14-0.45 383.72 0 383.07 0L383.07 0Q382.42 0 381.99-0.45 381.57-0.9 381.57-1.5L381.57-1.5 381.57-15.65Q381.57-17.7 380.97-19.35 380.37-21 379.02-21.98 377.67-22.95 375.37-22.95L375.37-22.95Q373.32-22.95 371.49-21.98 369.67-21 368.54-19.35 367.42-17.7 367.42-15.65L367.42-15.65 367.42-1.5Q367.42-0.9 366.97-0.45 366.52 0 365.92 0L365.92 0Q365.22 0 364.82-0.45 364.42-0.9 364.42-1.5L364.42-1.5 364.42-23.9Q364.42-24.5 364.84-24.95 365.27-25.4 365.92-25.4L365.92-25.4Q366.57-25.4 366.99-24.95 367.42-24.5 367.42-23.9L367.42-23.9 367.42-19.25 366.07-17.4Q366.22-18.9 367.04-20.4 367.87-21.9 369.22-23.1 370.57-24.3 372.29-25.03 374.02-25.75 375.92-25.75ZM421.36 0.5L421.36 0.5Q417.51 0.5 414.56-1.15 411.61-2.8 409.96-5.75 408.31-8.7 408.31-12.65L408.31-12.65Q408.31-16.9 409.99-19.9 411.66-22.9 414.34-24.53 417.01-26.15 420.01-26.15L420.01-26.15Q422.21-26.15 424.29-25.38 426.36-24.6 427.96-23.08 429.56-21.55 430.56-19.35 431.56-17.15 431.61-14.25L431.61-14.25Q431.61-13.65 431.16-13.23 430.71-12.8 430.11-12.8L430.11-12.8 410.06-12.8 409.46-15.5 429.16-15.5 428.51-14.9 428.51-15.9Q428.26-18.25 426.96-19.9 425.66-21.55 423.84-22.4 422.01-23.25 420.01-23.25L420.01-23.25Q418.51-23.25 416.94-22.65 415.36-22.05 414.09-20.78 412.81-19.5 412.01-17.53 411.21-15.55 411.21-12.85L411.21-12.85Q411.21-9.9 412.41-7.5 413.61-5.1 415.86-3.7 418.11-2.3 421.31-2.3L421.31-2.3Q423.01-2.3 424.41-2.8 425.81-3.3 426.89-4.13 427.96-4.95 428.66-5.85L428.66-5.85Q429.21-6.3 429.71-6.3L429.71-6.3Q430.26-6.3 430.64-5.9 431.01-5.5 431.01-5L431.01-5Q431.01-4.4 430.51-3.95L430.51-3.95Q429.01-2.15 426.61-0.83 424.21 0.5 421.36 0.5ZM449.86-26.15L449.86-26.15Q453.16-26.15 455.14-24.83 457.11-23.5 457.99-21.23 458.86-18.95 458.86-16.2L458.86-16.2 458.86-1.5Q458.86-0.9 458.41-0.45 457.96 0 457.36 0L457.36 0Q456.66 0 456.26-0.45 455.86-0.9 455.86-1.5L455.86-1.5 455.86-16.05Q455.86-18.05 455.21-19.7 454.56-21.35 453.09-22.35 451.61-23.35 449.21-23.35L449.21-23.35Q447.06-23.35 445.14-22.35 443.21-21.35 442.01-19.7 440.81-18.05 440.81-16.05L440.81-16.05 440.81-1.5Q440.81-0.9 440.36-0.45 439.91 0 439.31 0L439.31 0Q438.61 0 438.21-0.45 437.81-0.9 437.81-1.5L437.81-1.5 437.81-23.9Q437.81-24.5 438.24-24.95 438.66-25.4 439.31-25.4L439.31-25.4Q439.96-25.4 440.39-24.95 440.81-24.5 440.81-23.9L440.81-23.9 440.81-19.7 439.66-17.9Q439.76-19.5 440.69-20.98 441.61-22.45 443.06-23.63 444.51-24.8 446.29-25.48 448.06-26.15 449.86-26.15ZM465.06-25.45L465.06-25.45 476.71-25.45Q477.31-25.45 477.71-25.03 478.11-24.6 478.11-24L478.11-24Q478.11-23.45 477.71-23.05 477.31-22.65 476.71-22.65L476.71-22.65 465.06-22.65Q464.46-22.65 464.03-23.08 463.61-23.5 463.61-24.05L463.61-24.05Q463.61-24.65 464.03-25.05 464.46-25.45 465.06-25.45ZM470.21-32.5L470.21-32.5Q470.86-32.5 471.28-32.05 471.71-31.6 471.71-31L471.71-31 471.71-5.9Q471.71-4.5 472.08-3.8 472.46-3.1 473.06-2.88 473.66-2.65 474.26-2.65L474.26-2.65Q474.66-2.65 474.98-2.78 475.31-2.9 475.71-2.9L475.71-2.9Q476.16-2.9 476.48-2.55 476.81-2.2 476.81-1.65L476.81-1.65Q476.81-0.95 476.01-0.48 475.21 0 474.11 0L474.11 0Q473.66 0 472.76-0.08 471.86-0.15 470.91-0.63 469.96-1.1 469.33-2.3 468.71-3.5 468.71-5.75L468.71-5.75 468.71-31Q468.71-31.6 469.13-32.05 469.56-32.5 470.21-32.5Z" opacity="1" transform="matrix(1,0,0,1,0,0)" fill="#00d1cd" class="slogan-text-1" data-fill-palette-color="secondary" id="text-1"></path></svg></g></svg></g></svg></g></svg></g></svg></g><defs></defs></svg><rect width="395.52" height="99.50505018043242" fill="none" stroke="none" visibility="hidden"></rect></g></svg></g></svg>